<?xml version="1.0" standalone="no"?>
<!DOCTYPE svg PUBLIC "-//W3C//DTD SVG 20010904//EN"
 "http://www.w3.org/TR/2001/REC-SVG-20010904/DTD/svg10.dtd">
<svg version="1.0" xmlns="http://www.w3.org/2000/svg"
 width="200.000000pt" height="200.000000pt" viewBox="0 0 200.000000 200.000000"
 preserveAspectRatio="xMidYMid meet">

<g transform="translate(0.000000,200.000000) scale(0.100000,-0.100000)"
fill="#000000" stroke="none">
<path d="M816 1992 c-2 -4 -11 -61 -20 -127 -26 -194 -22 -183 -67 -205 -22
-12 -45 -17 -52 -13 -6 4 -63 47 -125 95 -63 48 -119 88 -125 88 -22 0 -260
-247 -254 -263 3 -9 47 -69 97 -135 l91 -119 -18 -39 c-9 -21 -18 -40 -19 -41
0 -2 -70 -12 -154 -24 -85 -11 -158 -23 -162 -25 -4 -3 -8 -86 -8 -185 0 -135
3 -181 13 -184 6 -3 77 -14 156 -24 79 -11 147 -23 152 -28 4 -4 15 -24 23
-44 l15 -36 -94 -123 c-52 -68 -95 -128 -95 -134 0 -15 242 -256 256 -256 7 0
63 40 125 88 63 48 119 91 126 95 7 4 30 -1 52 -13 45 -22 41 -11 67 -205 9
-66 18 -123 20 -127 7 -10 361 -10 368 0 2 4 11 61 20 127 26 194 22 183 67
205 22 12 45 17 52 13 7 -4 63 -47 126 -95 62 -48 119 -88 125 -88 15 0 256
242 256 258 0 7 -43 67 -95 133 l-94 121 15 37 c8 20 19 40 23 44 5 5 73 17
152 28 79 10 150 21 157 24 9 3 12 49 12 184 0 99 -4 182 -8 185 -4 2 -77 14
-162 25 -84 12 -154 22 -155 24 -1 1 -9 21 -18 43 l-16 42 95 122 c51 68 94
128 94 134 0 15 -242 256 -256 256 -7 0 -63 -40 -125 -88 -63 -48 -119 -91
-126 -95 -7 -4 -30 1 -52 13 -45 22 -41 11 -67 205 -9 66 -18 123 -20 127 -7
10 -361 10 -368 0z m318 -51 c3 -5 13 -60 21 -122 26 -193 19 -177 80 -203 94
-42 83 -45 208 54 64 49 120 90 124 90 10 0 193 -182 193 -192 0 -4 -41 -60
-90 -124 -99 -127 -96 -116 -55 -209 l24 -53 68 -11 c37 -6 103 -15 147 -21
43 -5 82 -13 87 -16 12 -7 12 -261 0 -268 -5 -3 -44 -11 -87 -16 -44 -6 -110
-15 -147 -21 l-68 -11 -24 -53 c-41 -93 -44 -83 55 -208 49 -64 90 -120 90
-124 0 -10 -182 -193 -192 -193 -4 0 -60 41 -124 90 -63 50 -119 90 -123 90
-5 0 -38 -13 -74 -30 -75 -34 -66 -14 -92 -209 -8 -62 -18 -117 -21 -122 -7
-12 -261 -12 -268 0 -3 5 -13 60 -21 122 -26 193 -19 177 -80 203 -94 42 -83
45 -208 -54 -64 -49 -120 -90 -124 -90 -9 0 -193 182 -193 191 0 4 41 59 90
124 67 87 89 123 84 138 -8 27 -53 127 -57 127 -19 0 -292 42 -298 46 -12 7
-11 261 0 269 5 3 63 12 128 20 183 24 169 18 203 92 17 36 30 69 30 73 0 5
-41 60 -90 123 -49 64 -90 119 -90 124 0 10 182 193 193 193 4 0 60 -40 123
-90 63 -49 119 -90 123 -90 5 0 38 13 74 30 74 34 68 20 92 203 8 65 17 123
20 128 8 12 262 12 269 0z"/>
<path d="M861 1535 c-198 -56 -346 -205 -396 -400 -70 -273 84 -556 355 -656
86 -32 265 -34 350 -5 160 54 294 184 352 341 18 50 22 81 22 185 0 104 -4
135 -22 185 -57 154 -185 282 -337 336 -79 28 -247 35 -324 14z m230 -45 c197
-37 364 -208 400 -412 47 -260 -144 -523 -413 -568 -267 -46 -528 147 -569
420 -32 208 80 419 272 514 108 53 199 67 310 46z"/>
<path d="M897 1439 c-74 -17 -152 -62 -213 -123 -173 -174 -179 -439 -14 -618
180 -197 480 -197 660 0 160 173 160 431 0 604 -109 120 -279 173 -433 137z
m168 -50 c166 -31 301 -168 323 -329 11 -75 -1 -168 -29 -221 l-21 -42 -44 51
c-31 36 -68 63 -120 88 -74 37 -75 37 -110 21 -44 -21 -84 -21 -128 -1 -33 16
-36 16 -101 -14 -44 -21 -85 -51 -121 -88 l-54 -57 -22 49 c-19 41 -23 66 -23
154 0 93 3 112 27 162 53 113 157 197 278 224 71 16 76 16 145 3z m-98 -502
c32 -8 52 -6 92 7 49 16 52 16 91 -4 50 -26 109 -78 132 -118 l18 -30 -41 -37
c-23 -21 -67 -49 -98 -64 -49 -23 -68 -26 -161 -26 -93 0 -112 3 -161 26 -31
15 -75 43 -98 64 -46 42 -45 48 15 115 40 44 131 94 154 84 8 -4 34 -11 57
-17z"/>
<path d="M961 1330 c-42 -10 -79 -37 -109 -81 -33 -48 -28 -141 10 -191 75
-98 237 -86 293 22 18 34 20 122 4 153 -39 75 -119 114 -198 97z m117 -84 c34
-31 37 -39 37 -86 0 -46 -4 -55 -32 -81 -18 -16 -44 -31 -58 -35 -36 -9 -71 2
-108 35 -28 26 -32 35 -32 81 0 47 3 55 37 86 30 27 46 34 78 34 32 0 48 -7
78 -34z"/>
</g>
</svg>
