<?xml version="1.0" standalone="no"?>
<!DOCTYPE svg PUBLIC "-//W3C//DTD SVG 20010904//EN"
 "http://www.w3.org/TR/2001/REC-SVG-20010904/DTD/svg10.dtd">
<svg version="1.0" xmlns="http://www.w3.org/2000/svg"
 width="431.000000pt" height="407.000000pt" viewBox="0 0 431.000000 407.000000"
 preserveAspectRatio="xMidYMid meet">

<g transform="translate(0.000000,407.000000) scale(0.100000,-0.100000)"
fill="#000000" stroke="none">
<path d="M1154 3279 c-16 -5 -41 -20 -55 -35 l-24 -26 -3 -1285 c-2 -1422 -7
-1312 61 -1353 31 -19 58 -20 1027 -20 980 0 995 0 1028 20 66 40 62 -37 62
1345 0 1407 5 1310 -72 1345 -38 17 -66 20 -235 20 l-193 0 0 -85 0 -85 125 0
c134 0 164 -8 192 -49 17 -24 18 -94 21 -1127 3 -1191 4 -1157 -51 -1198 -28
-21 -31 -21 -877 -21 -846 0 -849 0 -877 21 -15 11 -34 32 -40 45 -10 19 -12
268 -10 1146 l2 1123 28 27 c27 28 30 28 168 31 l140 4 -3 81 -3 82 -190 2
c-104 1 -204 -3 -221 -8z"/>
<path d="M1468 2854 c-64 -20 -69 -33 -7 -21 27 5 52 8 54 5 2 -2 -5 -41 -16
-87 -11 -46 -17 -86 -14 -89 11 -11 22 19 39 101 9 44 18 82 20 84 2 3 26 8
53 13 l48 8 -65 0 c-36 0 -86 -6 -112 -14z"/>
<path d="M1913 2836 c-15 -13 -24 -28 -20 -33 5 -4 15 1 23 11 22 30 25 15 18
-72 -6 -77 -8 -81 -36 -93 -16 -6 -27 -14 -24 -16 10 -10 172 67 189 89 17 23
17 27 1 67 -28 70 -99 92 -151 47z m118 -25 c19 -20 29 -40 29 -60 0 -28 -5
-34 -56 -56 -31 -14 -58 -25 -59 -25 -1 0 -2 38 -1 85 l1 85 28 0 c18 0 39
-11 58 -29z"/>
<path d="M2452 2801 c-26 -83 -9 -122 50 -120 19 1 17 2 -9 10 -37 11 -42 26
-30 93 10 60 4 69 -11 17z"/>
<path d="M2842 2808 c-7 -18 -20 -28 -39 -31 l-28 -4 28 -2 c25 -1 27 -4 27
-46 0 -38 4 -47 22 -54 22 -8 55 -4 62 8 2 3 -10 6 -27 6 -30 0 -32 2 -35 43
-3 41 -3 42 30 43 29 2 30 2 6 6 -20 3 -28 11 -30 31 l-4 27 -12 -27z"/>
<path d="M2608 2803 c7 -3 16 -2 19 1 4 3 -2 6 -13 5 -11 0 -14 -3 -6 -6z"/>
<path d="M1650 2785 c-19 -23 -26 -105 -9 -116 24 -15 39 -10 70 20 32 33 38
71 13 95 -20 20 -58 21 -74 1z m64 -14 c21 -23 15 -49 -19 -81 -38 -35 -59
-21 -52 36 7 63 37 82 71 45z"/>
<path d="M2140 2772 c-21 -17 -21 -19 -7 -55 9 -20 21 -37 28 -37 8 0 6 6 -4
18 -30 33 -16 82 23 82 42 0 66 -69 33 -89 -10 -6 -13 -11 -7 -11 35 -1 46 66
16 93 -24 22 -54 21 -82 -1z"/>
<path d="M2676 2775 c-3 -8 6 -28 20 -45 27 -31 26 -33 -21 -43 -13 -3 -9 -5
11 -6 40 -1 49 20 23 53 -23 30 -17 50 13 40 14 -4 18 -2 14 5 -10 16 -53 13
-60 -4z"/>
<path d="M2608 2764 c-5 -4 -8 -23 -7 -43 0 -34 1 -34 10 -11 11 27 8 66 -3
54z"/>
<path d="M1677 2601 c53 -7 82 -20 47 -22 -10 -1 1 -5 26 -10 64 -11 625 -9
580 2 -19 5 -123 7 -230 5 -119 -3 -173 -2 -138 3 31 5 191 11 355 13 164 3
262 2 218 -1 -79 -7 -79 -7 -20 -9 33 -1 85 1 115 5 l55 7 -40 7 c-22 5 -260
7 -530 7 -269 0 -467 -4 -438 -7z"/>
<path d="M1505 2580 c-26 -11 80 -11 150 0 45 6 40 7 -40 8 -49 0 -99 -3 -110
-8z"/>
<path d="M2748 2583 c12 -2 30 -2 40 0 9 3 -1 5 -23 4 -22 0 -30 -2 -17 -4z"/>
<path d="M2508 2563 c29 -2 74 -2 100 0 26 2 2 3 -53 3 -55 0 -76 -1 -47 -3z"/>
<path d="M1573 2553 c26 -2 67 -2 90 0 23 2 2 3 -48 3 -49 0 -68 -1 -42 -3z"/>
<path d="M1498 2371 c-14 -15 -30 -43 -38 -60 l-13 -32 -25 23 -25 23 23 -32
c13 -18 25 -33 26 -33 1 0 12 20 24 45 29 60 43 57 38 -9 -1 -30 1 -52 5 -49
5 3 7 33 6 67 -2 33 0 67 4 74 15 22 -1 13 -25 -17z"/>
<path d="M1382 2308 c-2 -42 6 -68 20 -68 7 0 7 4 0 13 -6 7 -12 30 -15 52
l-4 40 -1 -37z"/>
<path d="M2323 2243 c86 -2 228 -2 315 0 86 1 15 3 -158 3 -173 0 -244 -2
-157 -3z"/>
<path d="M1476 2130 l-24 -51 -21 33 c-11 18 -21 29 -21 23 0 -5 11 -23 24
-39 l23 -30 24 50 23 49 6 -65 7 -65 1 67 c1 37 -3 70 -8 73 -6 4 -21 -17 -34
-45z"/>
<path d="M1380 2155 c0 -8 2 -15 4 -15 2 0 6 7 10 15 3 8 1 15 -4 15 -6 0 -10
-7 -10 -15z"/>
<path d="M1381 2108 c-2 -40 9 -58 33 -57 20 0 20 1 1 8 -12 5 -22 21 -26 42
-6 29 -7 30 -8 7z"/>
<path d="M1783 2053 c43 -2 110 -2 150 0 40 1 5 3 -78 3 -82 0 -115 -2 -72 -3z"/>
<path d="M2298 2053 c45 -2 119 -2 165 0 45 1 8 3 -83 3 -91 0 -128 -2 -82 -3z"/>
<path d="M1380 1969 c0 -5 5 -7 10 -4 6 3 10 8 10 11 0 2 -4 4 -10 4 -5 0 -10
-5 -10 -11z"/>
<path d="M1462 1930 c-12 -27 -19 -50 -16 -50 3 0 14 21 24 46 11 25 24 42 30
39 5 -3 11 -30 12 -58 1 -46 2 -47 5 -13 5 50 -4 86 -21 86 -7 0 -23 -22 -34
-50z"/>
<path d="M1380 1881 c0 -11 4 -22 9 -25 4 -3 6 6 3 19 -5 30 -12 33 -12 6z"/>
<path d="M2218 1863 c23 -2 59 -2 80 0 20 2 1 4 -43 4 -44 0 -61 -2 -37 -4z"/>
<path d="M1828 1853 c7 -3 16 -2 19 1 4 3 -2 6 -13 5 -11 0 -14 -3 -6 -6z"/>
<path d="M1480 1750 c-32 -50 -33 -50 -54 -33 -21 18 -21 18 -3 -3 22 -27 22
-32 -5 -37 -21 -4 -20 -4 3 -6 21 -1 29 6 39 28 6 16 25 44 41 62 32 36 33 39
20 39 -5 0 -23 -23 -41 -50z"/>
<path d="M1383 1730 c0 -25 2 -35 4 -22 2 12 2 32 0 45 -2 12 -4 2 -4 -23z"/>
<path d="M1513 1720 c0 -25 2 -35 4 -22 2 12 2 32 0 45 -2 12 -4 2 -4 -23z"/>
<path d="M1708 1673 c12 -2 30 -2 40 0 9 3 -1 5 -23 4 -22 0 -30 -2 -17 -4z"/>
<path d="M1488 1613 c-9 -10 -23 -33 -33 -51 -16 -33 -17 -34 -37 -15 l-21 18
18 -27 c9 -16 19 -28 21 -28 2 0 13 18 24 40 13 25 25 38 32 34 7 -5 9 -2 5 8
-3 9 0 21 6 27 6 6 9 11 6 11 -3 0 -13 -8 -21 -17z"/>
<path d="M1382 1545 c0 -16 2 -22 5 -12 2 9 2 23 0 30 -3 6 -5 -1 -5 -18z"/>
<path d="M1484 1386 c-12 -24 -23 -35 -32 -31 -13 5 -13 3 -2 -11 12 -14 16
-11 36 28 l23 43 2 -35 c2 -32 2 -33 6 -6 7 47 -13 54 -33 12z"/>
<path d="M1793 1313 c31 -2 83 -2 115 0 31 2 5 3 -58 3 -63 0 -89 -1 -57 -3z"/>
<path d="M2628 1313 c34 -2 88 -2 120 0 31 2 3 3 -63 3 -66 0 -92 -1 -57 -3z"/>
<path d="M1501 1229 c-17 -22 -32 -46 -35 -52 -3 -8 -12 -4 -25 12 -25 28 -27
20 -5 -14 21 -32 27 -31 45 1 l14 26 6 -23 c6 -20 7 -18 8 11 1 20 8 46 17 58
8 12 13 22 10 22 -3 0 -19 -18 -35 -41z"/>
<path d="M1382 1190 c-2 -55 11 -70 58 -69 l35 2 -40 6 c-39 6 -40 7 -46 56
l-6 50 -1 -45z"/>
<path d="M1753 1113 c42 -2 112 -2 155 0 42 1 7 3 -78 3 -85 0 -120 -2 -77 -3z"/>
<path d="M2582 1113 c48 -2 129 -2 180 0 51 1 12 3 -87 3 -99 0 -141 -2 -93
-3z"/>
<path d="M1490 1032 c-32 -4 -33 -5 -10 -11 21 -6 26 -14 30 -56 l6 -50 4 63
c3 34 5 61 5 60 0 0 -16 -3 -35 -6z"/>
<path d="M1383 970 c0 -25 2 -35 4 -22 2 12 2 32 0 45 -2 12 -4 2 -4 -23z"/>
<path d="M1470 974 c-22 -34 -23 -35 -43 -17 l-21 18 20 -27 c10 -14 22 -23
25 -20 13 15 50 82 46 82 -3 0 -15 -16 -27 -36z"/>
</g>
</svg>
