<svg xmlns="http://www.w3.org/2000/svg"  viewBox="0 0 256 256" width="64px" height="64px" fill-rule="evenodd" clip-rule="evenodd"><path fill="#D7E057" d="M178.206,26.039c0,0,3.408,12.659,13.222,13.246c0,0-13.1,4.525-13.321,14.202 c0,0-2.579-13.572-12.925-14.059C165.182,39.428,177.232,37.603,178.206,26.039z"/><path fill="#3A312A" d="M178.105,54.986c-0.713,0-1.335-0.506-1.473-1.218c-0.023-0.124-2.494-12.417-11.521-12.843 c-0.77-0.036-1.388-0.65-1.428-1.421c-0.04-0.77,0.511-1.444,1.273-1.561c0.441-0.068,10.895-1.816,11.754-12.031 c0.062-0.726,0.635-1.301,1.359-1.367c0.729-0.053,1.394,0.399,1.584,1.102c0.031,0.116,3.259,11.626,11.863,12.141 c0.714,0.042,1.297,0.583,1.396,1.292c0.098,0.708-0.318,1.388-0.994,1.622c-0.121,0.042-12.118,4.311-12.313,12.819 c-0.018,0.767-0.611,1.396-1.375,1.46C178.189,54.984,178.148,54.986,178.105,54.986z M170.365,39.257 c3.878,1.969,6.229,5.746,7.586,8.877c2.026-4.021,5.942-6.787,8.949-8.427c-4.134-1.843-6.783-5.651-8.334-8.723 C176.773,35.344,173.296,37.853,170.365,39.257z"/><path fill="#D7E057" d="M156.507,43.019c0,0,2.411,8.954,9.352,9.369c0,0-9.266,3.201-9.422,10.045c0,0-1.824-9.6-9.142-9.944 C147.295,52.49,155.818,51.198,156.507,43.019z"/><path fill="#3A312A" d="M156.436,63.934c-0.714,0-1.337-0.507-1.473-1.22c-0.016-0.082-1.704-8.442-7.739-8.727 c-0.77-0.036-1.388-0.65-1.428-1.421c-0.04-0.769,0.511-1.444,1.273-1.56c0.296-0.047,7.363-1.242,7.942-8.112 c0.062-0.726,0.636-1.303,1.361-1.368c0.717-0.056,1.392,0.399,1.582,1.102l0,0c0.021,0.079,2.227,7.92,7.993,8.265 c0.714,0.042,1.299,0.584,1.396,1.293c0.097,0.709-0.32,1.388-0.996,1.622c-0.081,0.028-8.282,2.953-8.412,8.661 c-0.018,0.768-0.611,1.397-1.376,1.461C156.52,63.932,156.477,63.934,156.436,63.934z M151.917,52.406 c2.107,1.333,3.523,3.395,4.447,5.28c1.377-2.232,3.515-3.872,5.365-4.973c-2.287-1.269-3.885-3.35-4.941-5.224 C155.614,49.776,153.773,51.365,151.917,52.406z"/><path fill="#D7E057" d="M156.507,16.362c0,0,2.411,8.954,9.352,9.37c0,0-9.266,3.201-9.422,10.045c0,0-1.824-9.6-9.142-9.944 C147.295,25.832,155.818,24.541,156.507,16.362z"/><path fill="#3A312A" d="M156.436,37.276c-0.714,0-1.337-0.507-1.473-1.22c-0.016-0.082-1.704-8.442-7.739-8.726 c-0.77-0.036-1.388-0.65-1.428-1.421c-0.04-0.77,0.511-1.444,1.273-1.561c0.296-0.047,7.363-1.242,7.942-8.113 c0.062-0.726,0.636-1.303,1.361-1.368c0.717-0.054,1.392,0.399,1.582,1.102l0,0c0.021,0.079,2.227,7.92,7.993,8.266 c0.714,0.043,1.299,0.584,1.396,1.293c0.097,0.709-0.32,1.389-0.997,1.622c-0.08,0.028-8.281,2.952-8.411,8.661 c-0.018,0.768-0.611,1.397-1.376,1.461C156.52,37.274,156.477,37.276,156.436,37.276z M151.917,25.749 c2.107,1.332,3.523,3.395,4.447,5.279c1.376-2.232,3.516-3.871,5.365-4.972c-2.288-1.27-3.885-3.351-4.941-5.225 C155.614,23.119,153.773,24.708,151.917,25.749z"/><path fill="#F5E1C5" d="M171.267,134.712l-51.318-29.749c-2.548-1.477-5.441-2.255-8.387-2.256l-8.434-0.001v-10.21h-17v10.21 h-10.11c-6.87,0-12.68,4.52-14.62,10.75c-0.17,0.55-0.31,1.11-0.42,1.69c-0.18,0.93-0.27,1.88-0.27,2.86v49.202 c0,3.526,2.887,6.597,6.412,6.496c1.647-0.047,3.128-0.737,4.218-1.827c1.12-1.12,1.82-2.68,1.82-4.4v-6.41h42.9v-43.968 l49.196,28.519c1.488,0.863,3.189,1.039,4.72,0.632c1.49-0.396,2.829-1.331,3.696-2.732 C175.527,140.519,174.318,136.481,171.267,134.712z"/><path fill="#3A312A" d="M66.949,175.207c-1.952,0-3.815-0.77-5.268-2.181c-1.571-1.527-2.473-3.647-2.473-5.818v-49.201 c0-1.068,0.1-2.126,0.297-3.145c0.12-0.631,0.271-1.236,0.459-1.849c2.2-7.063,8.651-11.807,16.054-11.807h8.61v-8.71 c0-0.828,0.672-1.5,1.5-1.5h17c0.828,0,1.5,0.672,1.5,1.5v8.71h6.934c3.205,0.001,6.365,0.851,9.138,2.458l51.318,29.749l0,0 c1.879,1.089,3.262,2.933,3.794,5.057c0.51,2.036,0.202,4.109-0.867,5.836c-1.037,1.677-2.666,2.882-4.585,3.393 c-1.99,0.531-4.071,0.253-5.857-0.783l-46.944-27.214v41.364c0,0.828-0.672,1.5-1.5,1.5h-41.4v4.91 c0,2.065-0.802,4.005-2.259,5.461c-1.405,1.404-3.265,2.209-5.235,2.266C67.092,175.205,67.021,175.207,66.949,175.207z M76.019,104.207c-6.082,0-11.382,3.896-13.188,9.696c-0.155,0.501-0.279,1-0.379,1.524c-0.162,0.836-0.243,1.703-0.243,2.58 v49.201c0,1.365,0.569,2.701,1.563,3.666c0.92,0.894,2.098,1.378,3.306,1.331c1.203-0.035,2.34-0.528,3.201-1.39 c0.89-0.889,1.38-2.075,1.38-3.339v-6.41c0-0.828,0.672-1.5,1.5-1.5h41.4v-42.468c0-0.536,0.286-1.032,0.751-1.3 c0.463-0.267,1.036-0.267,1.501,0.002l49.196,28.52c1.093,0.634,2.366,0.802,3.582,0.48c1.176-0.313,2.172-1.05,2.806-2.072 c0.639-1.032,0.819-2.285,0.508-3.528c-0.337-1.343-1.207-2.506-2.388-3.19l-51.318-29.749c-2.317-1.343-4.957-2.053-7.635-2.054 h-8.433c-0.828,0-1.5-0.672-1.5-1.5v-8.71h-14v8.71c0,0.828-0.672,1.5-1.5,1.5H76.019z"/><path fill="#89C4DB" d="M165.949,131.632l-6.24,10.77l-43.65-25.3v43.96h-55.35v-43.06c0-0.98,0.09-1.93,0.27-2.86 c0.11-0.58,0.25-1.14,0.42-1.69c1.94-6.23,7.75-10.75,14.62-10.75h2.68l-0.01,0.01l10.52,13.96l5.45-4.1l5.47,4.1l10.52-13.96 l-0.01-0.01h0.92c2.95,0,5.84,0.78,8.39,2.26L165.949,131.632z"/><path fill="#3A312A" d="M116.059,162.563h-55.35c-0.828,0-1.5-0.672-1.5-1.5v-43.061c0-1.067,0.1-2.125,0.297-3.144 c0.118-0.623,0.273-1.247,0.459-1.85c2.2-7.063,8.651-11.807,16.054-11.807h2.68c0.547,0,1.046,0.298,1.309,0.767l9.498,12.604 l4.252-3.198c0.531-0.402,1.266-0.404,1.801-0.002l4.273,3.202l9.531-12.648c0.269-0.442,0.748-0.724,1.276-0.724h0.92 c3.205,0,6.366,0.852,9.143,2.462l45.999,26.67c0.717,0.416,0.961,1.333,0.546,2.05l-6.239,10.77 c-0.199,0.344-0.527,0.595-0.912,0.697c-0.385,0.103-0.794,0.048-1.138-0.151l-41.398-23.994v41.356 C117.559,161.891,116.887,162.563,116.059,162.563z M62.209,159.563h52.35v-42.46c0-0.536,0.286-1.032,0.751-1.3 c0.463-0.267,1.036-0.267,1.501,0.002l42.353,24.548l4.735-8.175l-44.702-25.918c-2.32-1.347-4.961-2.058-7.638-2.058h-0.155 l-10.076,13.372c-0.498,0.662-1.437,0.794-2.098,0.298l-4.569-3.424l-4.55,3.422c-0.66,0.499-1.601,0.366-2.1-0.296l-10.077-13.372 h-1.915c-6.082,0-11.382,3.896-13.188,9.696c-0.155,0.5-0.279,0.999-0.379,1.524c-0.162,0.836-0.243,1.702-0.243,2.579V159.563z"/><path fill="#87796F" d="M77.521,231.097c0,4.717,3.824,8.542,8.542,8.542h0.01c4.717,0,8.541-3.824,8.541-8.542V172.71H77.521 V231.097z"/><path fill="#3A312A" d="M86.072,241.139c-5.547,0-10.052-4.505-10.052-10.042V172.71c0-0.828,0.672-1.5,1.5-1.5h17.094 c0.828,0,1.5,0.672,1.5,1.5v58.387C96.114,236.634,91.609,241.139,86.072,241.139z M79.021,174.21v56.887 c0,3.883,3.159,7.042,7.042,7.042c3.893,0,7.052-3.159,7.052-7.042V174.21H79.021z"/><path fill="#87796F" d="M111.694,172.707v58.388c0,4.72-3.821,8.541-8.541,8.541c-2.355,0-4.488-0.95-6.034-2.497 c-1.547-1.546-2.507-3.689-2.507-6.044v-58.388H111.694z"/><path fill="#3A312A" d="M103.152,241.137c-2.682,0-5.201-1.043-7.095-2.937c-1.9-1.899-2.946-4.423-2.946-7.104v-58.389 c0-0.828,0.672-1.5,1.5-1.5h17.082c0.828,0,1.5,0.672,1.5,1.5v58.389C113.193,236.633,108.689,241.137,103.152,241.137z M96.111,174.207v56.889c0,1.88,0.734,3.65,2.067,4.983c1.327,1.327,3.094,2.058,4.974,2.058c3.883,0,7.041-3.158,7.041-7.041 v-56.889H96.111z"/><path fill="#3A312A" d="M116.059,162.564c-0.828,0-1.5-0.672-1.5-1.5v-40.71c0-0.828,0.672-1.5,1.5-1.5s1.5,0.672,1.5,1.5v40.71 C117.559,161.893,116.887,162.564,116.059,162.564z"/><rect width="21.45" height="64.22" x="94.609" y="160.997" fill="#87796F"/><path fill="#3A312A" d="M116.06,226.717h-21.45c-0.828,0-1.5-0.672-1.5-1.5v-64.22c0-0.828,0.672-1.5,1.5-1.5h21.45 c0.828,0,1.5,0.672,1.5,1.5v64.22C117.56,226.045,116.888,226.717,116.06,226.717z M96.109,223.717h18.45v-61.22h-18.45V223.717z"/><path fill="#F8E4C8" fill-rule="evenodd" d="M74.429,65.028c0,3.311-2.686,5.995-5.999,5.995 c-3.313,0-5.998-2.684-5.998-5.995c0-3.311,2.686-5.996,5.998-5.996C71.743,59.032,74.429,61.716,74.429,65.028z" clip-rule="evenodd"/><path fill="#3A312A" d="M68.431,72.523c-4.135,0-7.499-3.362-7.499-7.496c0-4.133,3.364-7.495,7.499-7.495 c4.135,0,7.498,3.362,7.498,7.495C75.929,69.161,72.565,72.523,68.431,72.523z M68.431,60.532c-2.48,0-4.499,2.017-4.499,4.495 c0,2.479,2.019,4.496,4.499,4.496c2.48,0,4.498-2.017,4.498-4.496C72.929,62.549,70.911,60.532,68.431,60.532z"/><path fill="#F8E4C8" fill-rule="evenodd" d="M126.785,65.028c0,3.311-2.686,5.995-5.998,5.995 c-3.313,0-5.999-2.684-5.999-5.995c0-3.311,2.686-5.996,5.999-5.996C124.1,59.032,126.785,61.716,126.785,65.028z" clip-rule="evenodd"/><path fill="#3A312A" d="M120.787,72.523c-4.135,0-7.499-3.362-7.499-7.496c0-4.133,3.364-7.495,7.499-7.495 c4.135,0,7.498,3.362,7.498,7.495C128.285,69.161,124.922,72.523,120.787,72.523z M120.787,60.532c-2.48,0-4.499,2.017-4.499,4.495 c0,2.479,2.019,4.496,4.499,4.496s4.498-2.017,4.498-4.496C125.285,62.549,123.268,60.532,120.787,60.532z"/><path fill="#F8E4C8" d="M121.201,62.117c0,14.679-14.144,37.209-26.592,37.209c-11.882,0-26.592-22.531-26.592-37.209 c0-14.679,11.906-26.578,26.592-26.578S121.201,47.438,121.201,62.117z"/><path fill="#3A312A" d="M94.608,100.827c-13.024,0-28.092-23.426-28.092-38.71c0-15.482,12.602-28.078,28.092-28.078 S122.7,46.635,122.7,62.117C122.7,77.754,107.902,100.827,94.608,100.827z M94.608,37.039c-13.836,0-25.092,11.25-25.092,25.078 c0,13.569,14.018,35.71,25.092,35.71c11.392,0,25.092-21.934,25.092-35.71C119.7,48.289,108.444,37.039,94.608,37.039z"/><path fill="#3A312A" d="M87.816,61.817c0,1.433-1.162,2.594-2.596,2.594c-1.433,0-2.595-1.161-2.595-2.594s1.162-2.594,2.595-2.594 C86.654,59.223,87.816,60.384,87.816,61.817z"/><path fill="#3A312A" d="M106.592,61.817c0,1.433-1.162,2.594-2.596,2.594c-1.434,0-2.595-1.161-2.595-2.594 s1.162-2.594,2.595-2.594C105.43,59.223,106.592,60.384,106.592,61.817z"/><ellipse cx="80.033" cy="69.53" fill="#F59689" rx="4.471" ry="3.341"/><path fill="#F59689" d="M113.656,69.53c0,1.845-2.002,3.341-4.471,3.341s-4.471-1.496-4.471-3.341c0-1.845,2.002-3.341,4.471-3.341 S113.656,67.685,113.656,69.53z"/><path fill="#3A312A" d="M94.607,85.176c-4.06,0-6.987-1.826-8.702-5.427c-0.356-0.747-0.038-1.643,0.71-1.999 c0.747-0.354,1.644-0.038,1.999,0.71c1.207,2.535,3.111,3.716,5.993,3.716c3.372,0,5.401-2.151,5.943-3.598 c0.29-0.776,1.152-1.171,1.931-0.878c0.775,0.29,1.169,1.154,0.878,1.931C102.359,82.302,99.194,85.176,94.607,85.176z"/><path fill="#87796F" d="M124.36,46.708c0.062,1.725-2.023,11.461-3.62,13.201c-3.479-0.512-10.612-12.513-11.846-14.522 c-0.479,0.58-14.03,5.421-19.93,7.389c-7.086,2.36-17.759,6.607-20.476,7.18c-2.785-3.135-4.807-9.203-4.807-16.619 c0-12.81,9.439-24.946,24.946-26.294c21.493-1.869,22.249,9.439,22.249,9.439S123.686,27.831,124.36,46.708z"/><path fill="#3A312A" d="M68.488,61.457c-0.424,0-0.834-0.18-1.122-0.504c-3.246-3.657-5.185-10.242-5.185-17.616 c0-12.672,9.039-26.286,26.316-27.788c9.152-0.799,15.907,0.61,20.073,4.183c2.322,1.991,3.232,4.185,3.583,5.49 c3.354,0.876,13.113,4.848,13.706,21.434l0,0c0.066,1.861-2.04,12.119-4.016,14.269c-0.336,0.366-0.827,0.544-1.323,0.47 c-1.82-0.269-4.852-2.129-12.212-14.089c-4.988,2.232-18.706,6.84-18.87,6.895c-3.039,1.012-6.687,2.354-10.214,3.65 c-4.709,1.731-8.776,3.227-10.427,3.575C68.695,61.446,68.591,61.457,68.488,61.457z M93.25,18.331 c-1.377,0-2.871,0.065-4.493,0.206c-15.478,1.347-23.575,13.495-23.575,24.8c0,6.095,1.464,11.693,3.861,14.925 c1.881-0.557,5.427-1.86,9.146-3.228c3.549-1.306,7.219-2.654,10.301-3.681c6.233-2.08,18.042-6.334,19.457-7.131 c0.292-0.237,0.662-0.363,1.051-0.332c0.482,0.033,0.92,0.298,1.174,0.711l0.249,0.408c5.589,9.175,8.438,12.082,9.717,12.999 c1.167-2.658,2.779-9.691,2.724-11.246c-0.621-17.375-12.027-18.776-12.142-18.788c-0.726-0.077-1.291-0.664-1.34-1.393 C109.348,26.23,108.455,18.331,93.25,18.331z M107.738,44.431c-0.001,0-0.001,0.001-0.002,0.002 C107.737,44.432,107.737,44.431,107.738,44.431z"/><polygon fill="#87796F" points="73.16,204.421 73.16,225.217 94.609,225.217 94.609,160.997 73.16,160.997 73.16,186.906"/><path fill="#3A312A" d="M94.609,226.717h-21.45c-0.828,0-1.5-0.672-1.5-1.5v-20.796c0-0.828,0.672-1.5,1.5-1.5 c0.828,0,1.5,0.672,1.5,1.5v19.296h18.45v-61.22h-18.45v24.409c0,0.828-0.672,1.5-1.5,1.5c-0.828,0-1.5-0.672-1.5-1.5v-25.909 c0-0.828,0.672-1.5,1.5-1.5h21.45c0.828,0,1.5,0.672,1.5,1.5v64.22C96.109,226.045,95.438,226.717,94.609,226.717z"/><path fill="#D6DF58" d="M154.483,203.017h35.995c2.658,0,4.813-2.155,4.813-4.811v-36.654c0-2.659-2.155-4.813-4.813-4.813H137.37 c-2.658,0-4.813,2.155-4.813,4.813v36.654c0,2.656,2.155,4.811,4.813,4.811h5.967H154.483z"/><path fill="#3A312A" d="M190.477,204.518h-35.995c-0.828,0-1.5-0.672-1.5-1.5c0-0.828,0.672-1.5,1.5-1.5h35.995 c1.827,0,3.314-1.485,3.314-3.311v-36.654c0-1.827-1.486-3.313-3.314-3.313H137.37c-1.827,0-3.314,1.486-3.314,3.313v36.654 c0,1.825,1.486,3.311,3.314,3.311h5.967c0.828,0,1.5,0.672,1.5,1.5c0,0.828-0.672,1.5-1.5,1.5h-5.967 c-3.481,0-6.314-2.831-6.314-6.311v-36.654c0-3.481,2.832-6.313,6.314-6.313h53.107c3.482,0,6.314,2.832,6.314,6.313v36.654 C196.791,201.686,193.959,204.518,190.477,204.518z"/><path fill="#8AC5DC" d="M173.689,146.052h-19.529c-2.217,0-4.02,1.803-4.02,4.02v6.667h4.501v-6.186h18.567v6.186h4.501v-6.667 C177.709,147.855,175.905,146.052,173.689,146.052z"/><path fill="#3A312A" d="M177.709,158.239h-4.501c-0.828,0-1.5-0.672-1.5-1.5v-4.686h-15.567v4.686c0,0.828-0.672,1.5-1.5,1.5 h-4.502c-0.828,0-1.5-0.672-1.5-1.5v-6.667c0-3.044,2.477-5.52,5.52-5.52h19.529c3.044,0,5.52,2.477,5.52,5.52v6.667 C179.209,157.567,178.537,158.239,177.709,158.239z M174.708,155.239h1.501v-5.167c0-1.39-1.131-2.52-2.52-2.52h-19.529 c-1.39,0-2.52,1.131-2.52,2.52v5.167h1.502v-4.686c0-0.828,0.672-1.5,1.5-1.5h18.567c0.828,0,1.5,0.672,1.5,1.5V155.239z"/><path fill="#EF6D7A" d="M195.291,169.548v-7.995c0-2.658-2.155-4.813-4.813-4.813H137.37c-2.658,0-4.813,2.155-4.813,4.813v7.995 l27.708,12.249c2.331,1.03,4.988,1.03,7.319,0L195.291,169.548z"/><path fill="#3A312A" d="M163.924,184.067c-1.455,0-2.91-0.3-4.266-0.898L131.95,170.92c-0.543-0.24-0.894-0.778-0.894-1.372v-7.995 c0-3.481,2.832-6.313,6.314-6.313h53.107c3.482,0,6.314,2.832,6.314,6.313v7.995c0,0.594-0.351,1.132-0.893,1.372l-27.708,12.249 C166.834,183.768,165.379,184.067,163.924,184.067z M134.057,168.571l26.814,11.854c1.941,0.857,4.166,0.856,6.105,0l26.814-11.854 v-7.019c0-1.827-1.486-3.313-3.314-3.313H137.37c-1.827,0-3.314,1.486-3.314,3.313V168.571z M195.291,169.548h0.01H195.291z"/><path fill="#3A312A" d="M166.596,175.678c0,1.476-1.197,2.673-2.673,2.673s-2.673-1.197-2.673-2.673 c0-1.476,1.197-2.673,2.673-2.673S166.596,174.202,166.596,175.678z"/><path fill="#8AC5DC" d="M144.641,167.942h-2.225c-0.939,0-1.701,0.761-1.701,1.701v9.399c0,0.939,0.762,1.701,1.701,1.701h2.225 c0.939,0,1.701-0.761,1.701-1.701v-9.399C146.341,168.703,145.58,167.942,144.641,167.942z"/><path fill="#3A312A" d="M144.641,182.242h-2.225c-1.765,0-3.201-1.437-3.201-3.201v-9.398c0-1.765,1.437-3.2,3.201-3.2h2.225 c1.765,0,3.2,1.436,3.2,3.2v9.398C147.841,180.806,146.405,182.242,144.641,182.242z M142.416,169.442 c-0.111,0-0.201,0.09-0.201,0.2v9.398c0,0.111,0.09,0.201,0.201,0.201h2.225c0.11,0,0.2-0.09,0.2-0.201v-9.398 c0-0.11-0.09-0.2-0.2-0.2H142.416z"/><path fill="#8AC5DC" d="M185.432,167.942h-2.225c-0.939,0-1.701,0.761-1.701,1.701v9.399c0,0.939,0.762,1.701,1.701,1.701h2.225 c0.939,0,1.701-0.761,1.701-1.701v-9.399C187.133,168.703,186.372,167.942,185.432,167.942z"/><path fill="#3A312A" d="M185.433,182.242h-2.226c-1.765,0-3.2-1.437-3.2-3.201v-9.398c0-1.765,1.436-3.2,3.2-3.2h2.226 c1.765,0,3.2,1.436,3.2,3.2v9.398C188.633,180.806,187.197,182.242,185.433,182.242z M183.207,169.442c-0.11,0-0.2,0.09-0.2,0.2 v9.398c0,0.111,0.09,0.201,0.2,0.201h2.226c0.11,0,0.2-0.09,0.2-0.201v-9.398c0-0.11-0.09-0.2-0.2-0.2H183.207z"/><polygon fill="#D6DF58" points="97.282,121.63 99.055,112.574 90.278,112.574 92.05,121.63"/><path fill="#3A312A" d="M97.282,123.13h-5.231c-0.718,0-1.334-0.508-1.472-1.212l-1.773-9.056 c-0.087-0.439,0.028-0.896,0.313-1.241c0.285-0.347,0.71-0.547,1.158-0.547h8.777c0.448,0,0.873,0.2,1.158,0.547 c0.285,0.346,0.4,0.802,0.313,1.241l-1.772,9.056C98.616,122.622,98,123.13,97.282,123.13z M93.285,120.13h2.762l1.186-6.056H92.1 L93.285,120.13z"/><polygon fill="#D6DF58" points="98.967,148.177 90.367,148.177 92.051,121.632 97.283,121.632"/><path fill="#3A312A" d="M98.967,149.677h-8.6c-0.414,0-0.811-0.171-1.094-0.474c-0.283-0.302-0.43-0.708-0.403-1.121l1.684-26.545 c0.05-0.79,0.705-1.405,1.497-1.405h5.231c0.792,0,1.447,0.615,1.497,1.405l1.685,26.545c0.026,0.413-0.12,0.819-0.403,1.121 C99.777,149.506,99.381,149.677,98.967,149.677z M91.966,146.677h5.402l-1.494-23.545h-2.415L91.966,146.677z"/><polygon fill="#8BBFD6" points="94.662,112.568 89.206,116.672 78.686,102.708 84.142,98.594"/><path fill="#3A312A" d="M89.207,118.172c-0.455,0-0.904-0.206-1.199-0.598l-10.52-13.964c-0.498-0.661-0.366-1.602,0.295-2.1 l5.455-4.114c0.317-0.239,0.719-0.344,1.112-0.288c0.394,0.056,0.75,0.266,0.989,0.583l10.521,13.974 c0.239,0.318,0.343,0.718,0.287,1.112c-0.056,0.394-0.266,0.749-0.584,0.988l-5.456,4.104 C89.838,118.074,89.521,118.172,89.207,118.172z M80.787,103.003l8.715,11.569l3.06-2.302l-8.715-11.575L80.787,103.003z"/><polygon fill="#8BBFD6" points="110.647,102.708 100.127,116.672 94.662,112.568 105.192,98.594"/><path fill="#3A312A" d="M100.126,118.172c-0.313,0-0.63-0.098-0.899-0.301l-5.465-4.104c-0.319-0.239-0.529-0.595-0.585-0.989 c-0.056-0.395,0.048-0.795,0.287-1.112l10.53-13.974c0.24-0.318,0.596-0.527,0.99-0.583c0.393-0.056,0.794,0.049,1.111,0.288 l5.455,4.114c0.661,0.498,0.793,1.439,0.295,2.1l-10.521,13.964C101.03,117.966,100.581,118.172,100.126,118.172z M96.765,112.271 l3.065,2.303l8.717-11.57l-3.06-2.308L96.765,112.271z"/><path fill="#87796F" d="M165.949,131.632l-6.24,10.77l-43.65-25.3v43.96h-55.35v-43.06c0-0.98,0.09-1.93,0.27-2.86 c0.11-0.58,0.25-1.14,0.42-1.69c1.94-6.23,7.75-10.75,14.62-10.75h2.68l-0.01,0.01l15.921,44.965l16.039-44.965l-0.01-0.01h0.92 c2.95,0,5.84,0.78,8.39,2.26L165.949,131.632z"/><path fill="#3A312A" d="M116.059,162.563h-55.35c-0.828,0-1.5-0.672-1.5-1.5v-43.061c0-1.067,0.1-2.125,0.297-3.144 c0.118-0.623,0.273-1.247,0.459-1.85c2.2-7.063,8.651-11.807,16.054-11.807h2.68c0.607,0,1.153,0.365,1.386,0.926 c0.035,0.085,0.063,0.172,0.081,0.26l14.449,40.81l14.577-40.865c0.018-0.067,0.039-0.134,0.066-0.199 c0.232-0.56,0.774-0.931,1.381-0.931h0.92c3.205,0,6.366,0.852,9.143,2.462l45.999,26.67c0.717,0.416,0.961,1.333,0.546,2.05 l-6.239,10.77c-0.199,0.344-0.527,0.595-0.912,0.697c-0.385,0.103-0.794,0.048-1.138-0.151l-41.398-23.994v41.356 C117.559,161.891,116.887,162.563,116.059,162.563z M62.209,159.563h52.35v-42.46c0-0.536,0.286-1.032,0.751-1.3 c0.463-0.267,1.036-0.267,1.501,0.002l42.353,24.548l4.735-8.175l-44.702-25.918c-2.276-1.321-4.862-2.03-7.487-2.057 l-15.687,43.978c-0.213,0.598-0.779,0.996-1.413,0.996c-0.001,0-0.001,0-0.002,0c-0.635-0.001-1.2-0.401-1.412-0.999l-15.57-43.976 h-1.606c-6.082,0-11.382,3.896-13.188,9.696c-0.155,0.5-0.279,0.999-0.379,1.524c-0.162,0.836-0.243,1.702-0.243,2.579V159.563z"/><path fill="#3A312A" d="M73.158,162.564c-0.828,0-1.5-0.672-1.5-1.5v-40.71c0-0.828,0.672-1.5,1.5-1.5c0.828,0,1.5,0.672,1.5,1.5 v40.71C74.658,161.893,73.986,162.564,73.158,162.564z"/><path fill="#3A312A" d="M94.609,162.563c-0.828,0-1.5-0.672-1.5-1.5v-13.386c0-0.828,0.672-1.5,1.5-1.5c0.828,0,1.5,0.672,1.5,1.5 v13.386C96.109,161.891,95.438,162.563,94.609,162.563z"/><path fill="#B9C239" d="M193.79,171.846v26.36c0,1.82-1.49,3.31-3.31,3.31h-15c1.82,0,3.31-1.49,3.31-3.31v-19.72l1.22-0.54v1.09 c0,1.77,1.43,3.21,3.2,3.21h2.22c1.77,0,3.2-1.44,3.2-3.21v-4.9L193.79,171.846z"/><path fill="#D34E5C" d="M190.48,158.237h-15c1.82,0,3.31,1.49,3.31,3.32v13.65l1.22-0.54v-5.02c0-1.77,1.43-3.2,3.2-3.2h2.22 c1.77,0,3.2,1.43,3.2,3.2v1.21l5.16-2.29v-7.01C193.79,159.727,192.3,158.237,190.48,158.237z"/></svg>