<?xml version="1.0" encoding="UTF-8"?>
<!DOCTYPE svg PUBLIC "-//W3C//DTD SVG 1.1//EN" "http://www.w3.org/Graphics/SVG/1.1/DTD/svg11.dtd">
<svg xmlns="http://www.w3.org/2000/svg" version="1.1" width="204px" height="192px" style="shape-rendering:geometricPrecision; text-rendering:geometricPrecision; image-rendering:optimizeQuality; fill-rule:evenodd; clip-rule:evenodd" xmlns:xlink="http://www.w3.org/1999/xlink">
<g><path style="opacity:1" fill="#f8fbfc" d="M -0.5,-0.5 C 1.83333,-0.5 4.16667,-0.5 6.5,-0.5C 3.63325,3.23975 1.29992,7.23975 -0.5,11.5C -0.5,7.5 -0.5,3.5 -0.5,-0.5 Z"/></g>
<g><path style="opacity:1" fill="#047ebb" d="M 6.5,-0.5 C 69.8333,-0.5 133.167,-0.5 196.5,-0.5C 199.367,3.23975 201.7,7.23975 203.5,11.5C 203.5,67.5 203.5,123.5 203.5,179.5C 201.519,183.461 199.519,187.461 197.5,191.5C 133.5,191.5 69.5,191.5 5.5,191.5C 3.48062,187.461 1.48062,183.461 -0.5,179.5C -0.5,123.5 -0.5,67.5 -0.5,11.5C 1.29992,7.23975 3.63325,3.23975 6.5,-0.5 Z"/></g>
<g><path style="opacity:1" fill="#f8fbfc" d="M 196.5,-0.5 C 198.833,-0.5 201.167,-0.5 203.5,-0.5C 203.5,3.5 203.5,7.5 203.5,11.5C 201.7,7.23975 199.367,3.23975 196.5,-0.5 Z"/></g>
<g><path style="opacity:1" fill="#fbfcfd" d="M 39.5,22.5 C 49.9593,20.7025 57.7926,24.3692 63,33.5C 65.1497,50.6798 57.6497,58.8465 40.5,58C 27.3319,51.1626 24.4986,41.3293 32,28.5C 34.4784,26.3606 36.9784,24.3606 39.5,22.5 Z"/></g>
<g><path style="opacity:1" fill="#fcfdfe" d="M 81.5,169.5 C 81.5,137.167 81.5,104.833 81.5,72.5C 90.8333,72.5 100.167,72.5 109.5,72.5C 109.177,76.226 109.511,79.8927 110.5,83.5C 111.107,83.3764 111.44,83.0431 111.5,82.5C 118.057,72.886 127.224,68.2194 139,68.5C 159.674,68.8281 171.674,79.1615 175,99.5C 175.5,122.831 175.667,146.164 175.5,169.5C 165.167,169.5 154.833,169.5 144.5,169.5C 144.667,149.164 144.5,128.831 144,108.5C 138.658,96.2791 129.825,93.1124 117.5,99C 113.619,101.928 111.119,105.761 110,110.5C 109.5,130.164 109.333,149.831 109.5,169.5C 100.167,169.5 90.8333,169.5 81.5,169.5 Z"/></g>
<g><path style="opacity:1" fill="#6fa4cd" d="M 80.5,71.5 C 90.3194,70.506 100.319,70.1726 110.5,70.5C 110.183,74.7016 110.517,78.7016 111.5,82.5C 111.44,83.0431 111.107,83.3764 110.5,83.5C 109.511,79.8927 109.177,76.226 109.5,72.5C 100.014,71.5062 90.3478,71.1729 80.5,71.5 Z"/></g>
<g><path style="opacity:1" fill="#fafcfd" d="M 30.5,71.5 C 40.8333,71.5 51.1667,71.5 61.5,71.5C 61.5,104.167 61.5,136.833 61.5,169.5C 51.1667,169.5 40.8333,169.5 30.5,169.5C 30.5,136.833 30.5,104.167 30.5,71.5 Z"/></g>
<g><path style="opacity:1" fill="#d3e3ef" d="M 80.5,71.5 C 90.3478,71.1729 100.014,71.5062 109.5,72.5C 100.167,72.5 90.8333,72.5 81.5,72.5C 81.5,104.833 81.5,137.167 81.5,169.5C 80.5017,137.004 80.1684,104.338 80.5,71.5 Z"/></g>
<g><path style="opacity:1" fill="#eef4f9" d="M -0.5,179.5 C 1.48062,183.461 3.48062,187.461 5.5,191.5C 3.5,191.5 1.5,191.5 -0.5,191.5C -0.5,187.5 -0.5,183.5 -0.5,179.5 Z"/></g>
<g><path style="opacity:1" fill="#eef4f9" d="M 203.5,179.5 C 203.5,183.5 203.5,187.5 203.5,191.5C 201.5,191.5 199.5,191.5 197.5,191.5C 199.519,187.461 201.519,183.461 203.5,179.5 Z"/></g>
</svg>
